<svg version="1" xmlns="http://www.w3.org/2000/svg" width="346.667" height="346.667" viewBox="0 0 260.000000 260.000000"><path d="M12 15c0 1.9 4.1 17.6 5 19 .7 1.2 1.3 1 3.3-.8 1.3-1.2 2.8-2.2 3.3-2.2s23.6 22.7 51.2 50.3l50.4 50.4-54.6 54.7c-48.8 48.9-54.9 54.6-57.1 54-3.7-.9-9 4.6-8.1 8.4 1.5 6 8.4 8.2 12.4 3.9 1.2-1.3 2.2-3.4 2.2-4.8 0-1.9 12.1-14.6 54.4-56.8 47.4-47.4 54.6-54.2 56.2-53.3 1.1.6 25.8 25.1 55 54.4 36.6 36.7 53.4 54.2 53.8 56.1 2.1 9.2 14.6 8.7 14.6-.6 0-4.3-2.7-6.8-7.7-7.1-3.6-.2-6.5-3-58.1-54.6l-54.3-54.5 51-50.9 51.1-51 3 2.9c1.6 1.6 3.2 2.6 3.5 2.4.9-.9 5.7-20.1 5.1-20.6-.6-.6-17.8 3.6-19.8 4.8-.9.6-.6 1.5 1.1 3.3l2.4 2.5-3.6 4c-3.8 4.2-97.7 98.1-98.1 98.1-.1 0-23-22.8-50.9-50.7L27.9 25.7l2.7-2.9c1.5-1.5 2.5-3 2.2-3.3-.6-.7-17.8-5.5-19.5-5.5-.7 0-1.3.5-1.3 1z"/><path d="M100.2 37l-8.4 9 18.8 19.5C121 76.2 129.7 84.9 130 84.9c1-.2 35.4-36.4 35.8-37.6.2-.7-3.1-5.3-7.4-10.2l-7.7-9.1-21.1.1h-21.1l-8.3 8.9zm19.8-3.5c0 .3-1.6 3-3.5 6L113 45H99.9l5.3-6c5-5.8 5.4-6 10-6 2.7 0 4.8.2 4.8.5zm15.3 5.5l3.6 6h-20.1l2.3-3.8c4.8-7.9 5.1-8.2 7.9-8.2 2.3 0 3.3 1 6.3 6zm17.4-1.3c6.2 7.5 6.3 7.3-1.4 7.3h-6.8l-3.3-5.4c-1.7-3-3.2-5.7-3.2-6 0-.3 2.4-.6 5.3-.6 5.2 0 5.5.2 9.4 4.7zm-34.6 22.9c2.2 4.8 3.8 8.8 3.7 8.9-.2.2-4.1-3.7-8.6-8.6l-8.4-8.9h9.3l4 8.6zm21.7-7.7c-1.2 3.4-9.4 20-9.8 20.1-.3 0-2.9-4.7-5.8-10.5L119 52h10.6c5.8 0 10.4.4 10.2.9zm6.7 8.1c-4.9 4.9-9.1 9-9.2 9-.2 0 1.7-4.1 4.2-9l4.5-9h9.5l-9 9zM188 134v34.3l4.1-.7c16.5-2.6 26.1-15 26.1-33.6 0-18.3-9.8-31-25.9-33.5l-4.3-.7V134zm15.6-19.8c4.2 4.6 5.8 9 6.2 18.1.3 6.7 0 9.8-1.3 13.3-2 5.4-5.7 9.9-9.6 12l-2.9 1.5v-50.2l2.8 1.5c1.5.8 3.7 2.5 4.8 3.8zM57.5 102.5c-6.4 2.3-12 9-14.6 17.5-3 10-2.4 24 1.3 32.2 4.6 10 14.1 16.8 23.5 16.8H71v-32.1l-3.7.3-3.8.3-.3 11.3-.3 11.2-3-1.5c-7.4-3.9-11.5-14.5-10.6-27.5.9-13.3 7.5-22.6 15.5-21.7 2.9.3 3.6-.1 4.9-2.6.8-1.6 1.1-3.3.6-3.8-1.6-1.6-8.8-1.9-12.8-.4zM126.5 213.1c-6.6 13.8-12.1 25.7-12.3 26.4-.4 1.7 5.7 5 6.8 3.8.9-.8 25-50.9 25-51.8 0-.6-5.6-3.5-6.7-3.5-.4 0-6.2 11.3-12.8 25.1zM97 204.4c-10.8 6.8-11.5 7.4-11.8 10.7-.3 3.5-.2 3.6 11.3 10.7 6.3 4 11.9 7.2 12.3 7.2.7 0 4.2-5.2 4.2-6.3 0-.2-4-2.8-9-5.6-4.9-2.9-9-5.6-9-6 0-.4 4.1-3 9-5.9 5-2.9 9-5.6 9-6 0-.4-1-1.9-2.3-3.4l-2.2-2.6-11.5 7.2zM149.7 200c-1 1.7-1.6 3.4-1.2 4 .3.5 4.4 3.1 9 5.7 4.7 2.6 8.5 5.1 8.5 5.4 0 .4-3.9 3-8.7 5.9-4.9 2.9-8.9 5.4-9.1 5.5-.2.2.4 1.7 1.3 3.5 2 3.8 1.5 3.9 15.7-4.8 10.7-6.6 10.9-6.8 10.6-10.1-.3-3.2-1.1-3.9-11.8-10.7-6.3-4-11.7-7.3-12-7.3-.3-.1-1.4 1.3-2.3 2.9z"/></svg>